<mxfile host="65bd71144e">
    <diagram id="X2jaoahTWf6FC9TByKvP" name="Page-1">
        <mxGraphModel dx="1109" dy="821" grid="1" gridSize="10" guides="0" tooltips="1" connect="1" arrows="1" fold="1" page="1" pageScale="1" pageWidth="850" pageHeight="1100" background="#99CCFF" math="0" shadow="0">
            <root>
                <mxCell id="0"/>
                <mxCell id="1" parent="0"/>
                <mxCell id="2" value="Electronic Health Record ER Diagram&lt;br&gt;" style="text;html=1;strokeColor=none;fillColor=none;align=center;verticalAlign=middle;whiteSpace=wrap;rounded=0;fontFamily=Architects Daughter;fontSource=https%3A%2F%2Ffonts.googleapis.com%2Fcss%3Ffamily%3DArchitects%2BDaughter;fontColor=#0066CC;fontSize=48;fontStyle=1" parent="1" vertex="1">
                    <mxGeometry x="90" y="30" width="960" height="30" as="geometry"/>
                </mxCell>
                <mxCell id="3" value="&lt;font style=&quot;font-size: 14px;&quot;&gt;credentials&lt;/font&gt;" style="ellipse;whiteSpace=wrap;html=1;fontSize=14;fontFamily=Architects Daughter;fontSource=https%3A%2F%2Ffonts.googleapis.com%2Fcss%3Ffamily%3DArchitects%2BDaughter;fillColor=#b0e3e6;strokeColor=#0e8088;strokeWidth=2;fontColor=#006633;" parent="1" vertex="1">
                    <mxGeometry x="100" y="530" width="80" height="40" as="geometry"/>
                </mxCell>
                <mxCell id="48" value="" style="edgeStyle=none;html=1;fontFamily=Architects Daughter;fontSource=https%3A%2F%2Ffonts.googleapis.com%2Fcss%3Ffamily%3DArchitects%2BDaughter;fontSize=12;fontColor=#994C00;endArrow=none;endFill=0;strokeColor=#0066CC;strokeWidth=6;exitX=1;exitY=0;exitDx=0;exitDy=0;" parent="1" source="5" target="18" edge="1">
                    <mxGeometry relative="1" as="geometry"/>
                </mxCell>
                <mxCell id="49" style="edgeStyle=none;html=1;exitX=0;exitY=0;exitDx=0;exitDy=0;entryX=1;entryY=1;entryDx=0;entryDy=0;fontFamily=Architects Daughter;fontSource=https%3A%2F%2Ffonts.googleapis.com%2Fcss%3Ffamily%3DArchitects%2BDaughter;fontSize=12;fontColor=#994C00;endArrow=none;endFill=0;strokeColor=#0066CC;strokeWidth=6;" parent="1" source="5" target="14" edge="1">
                    <mxGeometry relative="1" as="geometry"/>
                </mxCell>
                <mxCell id="50" value="" style="edgeStyle=none;html=1;fontFamily=Architects Daughter;fontSource=https%3A%2F%2Ffonts.googleapis.com%2Fcss%3Ffamily%3DArchitects%2BDaughter;fontSize=12;fontColor=#994C00;endArrow=none;endFill=0;strokeColor=#0066CC;strokeWidth=6;" parent="1" source="5" target="8" edge="1">
                    <mxGeometry relative="1" as="geometry"/>
                </mxCell>
                <mxCell id="51" style="edgeStyle=none;html=1;exitX=0;exitY=1;exitDx=0;exitDy=0;entryX=1;entryY=0;entryDx=0;entryDy=0;fontFamily=Architects Daughter;fontSource=https%3A%2F%2Ffonts.googleapis.com%2Fcss%3Ffamily%3DArchitects%2BDaughter;fontSize=12;fontColor=#994C00;endArrow=none;endFill=0;strokeColor=#0066CC;strokeWidth=6;" parent="1" source="5" target="3" edge="1">
                    <mxGeometry relative="1" as="geometry"/>
                </mxCell>
                <mxCell id="5" value="User" style="rounded=0;whiteSpace=wrap;html=1;strokeWidth=2;fontFamily=Architects Daughter;fontSource=https%3A%2F%2Ffonts.googleapis.com%2Fcss%3Ffamily%3DArchitects%2BDaughter;fontSize=18;fillColor=#d0cee2;strokeColor=#56517e;fontColor=#6C538A;" parent="1" vertex="1">
                    <mxGeometry x="210" y="440" width="80" height="40" as="geometry"/>
                </mxCell>
                <mxCell id="7" value="&lt;font style=&quot;font-size: 14px;&quot;&gt;reaction&lt;/font&gt;" style="ellipse;whiteSpace=wrap;html=1;fontSize=14;fontFamily=Architects Daughter;fontSource=https%3A%2F%2Ffonts.googleapis.com%2Fcss%3Ffamily%3DArchitects%2BDaughter;fillColor=#b0e3e6;strokeColor=#0e8088;strokeWidth=2;fontColor=#006633;" parent="1" vertex="1">
                    <mxGeometry x="780" y="360" width="80" height="40" as="geometry"/>
                </mxCell>
                <mxCell id="8" value="&lt;font style=&quot;font-size: 14px;&quot;&gt;username&lt;/font&gt;" style="ellipse;whiteSpace=wrap;html=1;fontSize=14;fontFamily=Architects Daughter;fontSource=https%3A%2F%2Ffonts.googleapis.com%2Fcss%3Ffamily%3DArchitects%2BDaughter;fillColor=#b0e3e6;strokeColor=#0e8088;strokeWidth=2;fontColor=#006633;fontStyle=4" parent="1" vertex="1">
                    <mxGeometry x="40" y="440" width="80" height="40" as="geometry"/>
                </mxCell>
                <mxCell id="44" value="" style="edgeStyle=none;html=1;fontFamily=Architects Daughter;fontSource=https%3A%2F%2Ffonts.googleapis.com%2Fcss%3Ffamily%3DArchitects%2BDaughter;fontSize=12;fontColor=#994C00;endArrow=none;endFill=0;strokeColor=#0066CC;strokeWidth=6;exitX=0.25;exitY=0;exitDx=0;exitDy=0;" parent="1" source="9" target="21" edge="1">
                    <mxGeometry relative="1" as="geometry"/>
                </mxCell>
                <mxCell id="45" style="edgeStyle=none;html=1;exitX=0;exitY=0;exitDx=0;exitDy=0;entryX=1;entryY=1;entryDx=0;entryDy=0;fontFamily=Architects Daughter;fontSource=https%3A%2F%2Ffonts.googleapis.com%2Fcss%3Ffamily%3DArchitects%2BDaughter;fontSize=12;fontColor=#994C00;endArrow=none;endFill=0;strokeColor=#0066CC;strokeWidth=6;" parent="1" source="9" target="19" edge="1">
                    <mxGeometry relative="1" as="geometry"/>
                </mxCell>
                <mxCell id="46" value="" style="edgeStyle=none;html=1;fontFamily=Architects Daughter;fontSource=https%3A%2F%2Ffonts.googleapis.com%2Fcss%3Ffamily%3DArchitects%2BDaughter;fontSize=12;fontColor=#994C00;endArrow=none;endFill=0;strokeColor=#0066CC;strokeWidth=6;" parent="1" source="9" target="16" edge="1">
                    <mxGeometry relative="1" as="geometry"/>
                </mxCell>
                <mxCell id="105" style="edgeStyle=none;html=1;exitX=0.75;exitY=0;exitDx=0;exitDy=0;entryX=0.5;entryY=1;entryDx=0;entryDy=0;fontSize=16;endArrow=none;endFill=0;strokeWidth=2;strokeColor=#0066CC;" parent="1" source="9" target="103" edge="1">
                    <mxGeometry relative="1" as="geometry"/>
                </mxCell>
                <mxCell id="9" value="Patient" style="rounded=0;whiteSpace=wrap;html=1;strokeWidth=2;fontFamily=Architects Daughter;fontSource=https%3A%2F%2Ffonts.googleapis.com%2Fcss%3Ffamily%3DArchitects%2BDaughter;fontSize=18;fillColor=#d0cee2;strokeColor=#56517e;fontColor=#6C538A;" parent="1" vertex="1">
                    <mxGeometry x="520" y="500" width="80" height="40" as="geometry"/>
                </mxCell>
                <mxCell id="33" value="" style="edgeStyle=none;html=1;fontFamily=Architects Daughter;fontSource=https%3A%2F%2Ffonts.googleapis.com%2Fcss%3Ffamily%3DArchitects%2BDaughter;fontSize=12;fontColor=#994C00;endArrow=classic;endFill=1;strokeColor=#0066CC;strokeWidth=6;" parent="1" source="10" target="15" edge="1">
                    <mxGeometry relative="1" as="geometry"/>
                </mxCell>
                <mxCell id="54" value="" style="edgeStyle=none;html=1;fontFamily=Architects Daughter;fontSource=https%3A%2F%2Ffonts.googleapis.com%2Fcss%3Ffamily%3DArchitects%2BDaughter;fontSize=12;fontColor=#994C00;endArrow=none;endFill=0;strokeColor=#0066CC;strokeWidth=2;exitX=1;exitY=1;exitDx=0;exitDy=0;" parent="1" source="9" target="53" edge="1">
                    <mxGeometry relative="1" as="geometry"/>
                </mxCell>
                <mxCell id="62" style="edgeStyle=none;html=1;exitX=0;exitY=1;exitDx=0;exitDy=0;entryX=1;entryY=0;entryDx=0;entryDy=0;fontFamily=Architects Daughter;fontSource=https%3A%2F%2Ffonts.googleapis.com%2Fcss%3Ffamily%3DArchitects%2BDaughter;fontSize=12;fontColor=#994C00;endArrow=none;endFill=0;strokeColor=#0066CC;strokeWidth=6;" parent="1" source="10" target="56" edge="1">
                    <mxGeometry relative="1" as="geometry"/>
                </mxCell>
                <mxCell id="63" value="" style="edgeStyle=none;html=1;fontFamily=Architects Daughter;fontSource=https%3A%2F%2Ffonts.googleapis.com%2Fcss%3Ffamily%3DArchitects%2BDaughter;fontSize=12;fontColor=#994C00;endArrow=none;endFill=0;strokeColor=#0066CC;strokeWidth=6;startArrow=none;" parent="1" source="155" edge="1">
                    <mxGeometry relative="1" as="geometry">
                        <mxPoint x="509.03838163630894" y="900.5172662506236" as="targetPoint"/>
                    </mxGeometry>
                </mxCell>
                <mxCell id="66" style="edgeStyle=none;html=1;exitX=0.75;exitY=1;exitDx=0;exitDy=0;fontFamily=Architects Daughter;fontSource=https%3A%2F%2Ffonts.googleapis.com%2Fcss%3Ffamily%3DArchitects%2BDaughter;fontSize=12;fontColor=#994C00;endArrow=none;endFill=0;strokeColor=#0066CC;strokeWidth=2;" parent="1" source="10" target="65" edge="1">
                    <mxGeometry relative="1" as="geometry"/>
                </mxCell>
                <mxCell id="10" value="Medical Condition" style="rounded=0;whiteSpace=wrap;html=1;strokeWidth=2;fontFamily=Architects Daughter;fontSource=https%3A%2F%2Ffonts.googleapis.com%2Fcss%3Ffamily%3DArchitects%2BDaughter;fontSize=18;fillColor=#d0cee2;strokeColor=#56517e;fontColor=#6C538A;" parent="1" vertex="1">
                    <mxGeometry x="520" y="770" width="80" height="40" as="geometry"/>
                </mxCell>
                <mxCell id="55" value="" style="edgeStyle=none;html=1;fontFamily=Architects Daughter;fontSource=https%3A%2F%2Ffonts.googleapis.com%2Fcss%3Ffamily%3DArchitects%2BDaughter;fontSize=12;fontColor=#994C00;endArrow=classic;endFill=1;strokeColor=#0066CC;strokeWidth=6;entryX=1;entryY=1;entryDx=0;entryDy=0;startArrow=none;startFill=0;" parent="1" source="11" target="53" edge="1">
                    <mxGeometry relative="1" as="geometry">
                        <mxPoint x="790" y="780" as="targetPoint"/>
                    </mxGeometry>
                </mxCell>
                <mxCell id="61" value="" style="edgeStyle=none;html=1;fontFamily=Architects Daughter;fontSource=https%3A%2F%2Ffonts.googleapis.com%2Fcss%3Ffamily%3DArchitects%2BDaughter;fontSize=12;fontColor=#994C00;endArrow=classic;endFill=1;strokeColor=#0066CC;strokeWidth=2;startArrow=none;startFill=0;entryX=0.5;entryY=1;entryDx=0;entryDy=0;" parent="1" source="11" target="59" edge="1">
                    <mxGeometry relative="1" as="geometry">
                        <mxPoint x="910" y="680" as="targetPoint"/>
                    </mxGeometry>
                </mxCell>
                <mxCell id="77" style="edgeStyle=none;html=1;exitX=0;exitY=1;exitDx=0;exitDy=0;entryX=1;entryY=0;entryDx=0;entryDy=0;fontFamily=Architects Daughter;fontSource=https%3A%2F%2Ffonts.googleapis.com%2Fcss%3Ffamily%3DArchitects%2BDaughter;fontSize=11;fontColor=#994C00;endArrow=none;endFill=0;strokeColor=#0066CC;strokeWidth=6;" parent="1" source="11" target="76" edge="1">
                    <mxGeometry relative="1" as="geometry"/>
                </mxCell>
                <mxCell id="78" value="" style="edgeStyle=none;html=1;fontFamily=Architects Daughter;fontSource=https%3A%2F%2Ffonts.googleapis.com%2Fcss%3Ffamily%3DArchitects%2BDaughter;fontSize=11;fontColor=#994C00;endArrow=none;endFill=0;strokeColor=#0066CC;strokeWidth=6;" parent="1" source="11" target="67" edge="1">
                    <mxGeometry relative="1" as="geometry"/>
                </mxCell>
                <mxCell id="79" value="" style="edgeStyle=none;html=1;fontFamily=Architects Daughter;fontSource=https%3A%2F%2Ffonts.googleapis.com%2Fcss%3Ffamily%3DArchitects%2BDaughter;fontSize=11;fontColor=#994C00;endArrow=none;endFill=0;strokeColor=#0066CC;strokeWidth=6;entryX=0;entryY=0.5;entryDx=0;entryDy=0;" parent="1" source="11" target="129" edge="1">
                    <mxGeometry relative="1" as="geometry">
                        <mxPoint x="1035.2702743150194" y="789.9227787671373" as="targetPoint"/>
                    </mxGeometry>
                </mxCell>
                <mxCell id="80" style="edgeStyle=none;html=1;exitX=1;exitY=1;exitDx=0;exitDy=0;entryX=0.325;entryY=0.105;entryDx=0;entryDy=0;fontFamily=Architects Daughter;fontSource=https%3A%2F%2Ffonts.googleapis.com%2Fcss%3Ffamily%3DArchitects%2BDaughter;fontSize=11;fontColor=#994C00;endArrow=none;endFill=0;entryPerimeter=0;strokeColor=#0066CC;strokeWidth=6;" parent="1" source="11" target="75" edge="1">
                    <mxGeometry relative="1" as="geometry"/>
                </mxCell>
                <mxCell id="81" style="edgeStyle=none;html=1;entryX=0.304;entryY=1.027;entryDx=0;entryDy=0;fontFamily=Architects Daughter;fontSource=https%3A%2F%2Ffonts.googleapis.com%2Fcss%3Ffamily%3DArchitects%2BDaughter;fontSize=11;fontColor=#994C00;endArrow=none;endFill=0;strokeColor=#0066CC;strokeWidth=6;exitX=0.75;exitY=0;exitDx=0;exitDy=0;entryPerimeter=0;" parent="1" source="11" target="74" edge="1">
                    <mxGeometry relative="1" as="geometry">
                        <mxPoint x="972" y="800" as="sourcePoint"/>
                    </mxGeometry>
                </mxCell>
                <mxCell id="11" value="Medication" style="rounded=0;whiteSpace=wrap;html=1;strokeWidth=2;fontFamily=Architects Daughter;fontSource=https%3A%2F%2Ffonts.googleapis.com%2Fcss%3Ffamily%3DArchitects%2BDaughter;fontSize=16;fillColor=#d0cee2;strokeColor=#56517e;fontColor=#6C538A;" parent="1" vertex="1">
                    <mxGeometry x="890" y="800" width="80" height="40" as="geometry"/>
                </mxCell>
                <mxCell id="60" value="" style="edgeStyle=none;html=1;fontFamily=Architects Daughter;fontSource=https%3A%2F%2Ffonts.googleapis.com%2Fcss%3Ffamily%3DArchitects%2BDaughter;fontSize=12;fontColor=#994C00;endArrow=classic;endFill=1;strokeColor=#0066CC;strokeWidth=6;entryX=0.5;entryY=0;entryDx=0;entryDy=0;" parent="1" source="12" target="59" edge="1">
                    <mxGeometry relative="1" as="geometry">
                        <mxPoint x="890" y="570" as="targetPoint"/>
                    </mxGeometry>
                </mxCell>
                <mxCell id="99" style="edgeStyle=none;html=1;exitX=0;exitY=0;exitDx=0;exitDy=0;entryX=0.724;entryY=0.9;entryDx=0;entryDy=0;fontFamily=Architects Daughter;fontSource=https%3A%2F%2Ffonts.googleapis.com%2Fcss%3Ffamily%3DArchitects%2BDaughter;fontSize=48;fontColor=#994C00;endArrow=none;endFill=0;strokeColor=#0066CC;strokeWidth=6;entryPerimeter=0;" parent="1" source="12" target="7" edge="1">
                    <mxGeometry relative="1" as="geometry"/>
                </mxCell>
                <mxCell id="100" value="" style="edgeStyle=none;html=1;fontFamily=Architects Daughter;fontSource=https%3A%2F%2Ffonts.googleapis.com%2Fcss%3Ffamily%3DArchitects%2BDaughter;fontSize=48;fontColor=#994C00;endArrow=none;endFill=0;strokeColor=#0066CC;strokeWidth=2;exitX=1;exitY=0;exitDx=0;exitDy=0;" parent="1" source="12" target="17" edge="1">
                    <mxGeometry relative="1" as="geometry"/>
                </mxCell>
                <mxCell id="101" style="edgeStyle=none;html=1;exitX=1;exitY=1;exitDx=0;exitDy=0;entryX=0;entryY=0;entryDx=0;entryDy=0;fontFamily=Architects Daughter;fontSource=https%3A%2F%2Ffonts.googleapis.com%2Fcss%3Ffamily%3DArchitects%2BDaughter;fontSize=48;fontColor=#994C00;endArrow=none;endFill=0;strokeColor=#0066CC;strokeWidth=6;" parent="1" source="12" target="25" edge="1">
                    <mxGeometry relative="1" as="geometry"/>
                </mxCell>
                <mxCell id="12" value="Allergy" style="rounded=0;whiteSpace=wrap;html=1;strokeWidth=2;fontFamily=Architects Daughter;fontSource=https%3A%2F%2Ffonts.googleapis.com%2Fcss%3Ffamily%3DArchitects%2BDaughter;fontSize=18;fillColor=#d0cee2;strokeColor=#56517e;fontColor=#6C538A;" parent="1" vertex="1">
                    <mxGeometry x="850" y="450" width="80" height="40" as="geometry"/>
                </mxCell>
                <mxCell id="14" value="&lt;font style=&quot;font-size: 14px;&quot;&gt;id&lt;/font&gt;" style="ellipse;whiteSpace=wrap;html=1;fontSize=14;fontFamily=Architects Daughter;fontSource=https%3A%2F%2Ffonts.googleapis.com%2Fcss%3Ffamily%3DArchitects%2BDaughter;fillColor=#b0e3e6;strokeColor=#0e8088;strokeWidth=2;fontColor=#006633;fontStyle=5" parent="1" vertex="1">
                    <mxGeometry x="60" y="360" width="80" height="40" as="geometry"/>
                </mxCell>
                <mxCell id="34" value="" style="edgeStyle=none;html=1;fontFamily=Architects Daughter;fontSource=https%3A%2F%2Ffonts.googleapis.com%2Fcss%3Ffamily%3DArchitects%2BDaughter;fontSize=12;fontColor=#994C00;endArrow=none;endFill=0;strokeColor=#0066CC;strokeWidth=6;" parent="1" source="15" target="9" edge="1">
                    <mxGeometry relative="1" as="geometry"/>
                </mxCell>
                <mxCell id="15" value="has" style="rhombus;whiteSpace=wrap;html=1;strokeWidth=2;fontFamily=Architects Daughter;fontSource=https%3A%2F%2Ffonts.googleapis.com%2Fcss%3Ffamily%3DArchitects%2BDaughter;fontSize=14;fillColor=#fad7ac;strokeColor=#b46504;fontColor=#994C00;" parent="1" vertex="1">
                    <mxGeometry x="520" y="640" width="80" height="40" as="geometry"/>
                </mxCell>
                <mxCell id="47" value="" style="edgeStyle=none;html=1;fontFamily=Architects Daughter;fontSource=https%3A%2F%2Ffonts.googleapis.com%2Fcss%3Ffamily%3DArchitects%2BDaughter;fontSize=12;fontColor=#994C00;endArrow=none;endFill=0;strokeColor=#0066CC;strokeWidth=2;exitX=0;exitY=0.5;exitDx=0;exitDy=0;" parent="1" source="16" target="5" edge="1">
                    <mxGeometry relative="1" as="geometry"/>
                </mxCell>
                <mxCell id="16" value="cares&lt;br&gt;for" style="rhombus;whiteSpace=wrap;html=1;strokeWidth=2;fontFamily=Architects Daughter;fontSource=https%3A%2F%2Ffonts.googleapis.com%2Fcss%3Ffamily%3DArchitects%2BDaughter;fontSize=14;fillColor=#fad7ac;strokeColor=#b46504;fontColor=#994C00;" parent="1" vertex="1">
                    <mxGeometry x="360" y="500" width="80" height="40" as="geometry"/>
                </mxCell>
                <mxCell id="17" value="&lt;font style=&quot;font-size: 14px;&quot;&gt;anaphylaxis?&lt;/font&gt;" style="ellipse;whiteSpace=wrap;html=1;fontSize=14;fontFamily=Architects Daughter;fontSource=https%3A%2F%2Ffonts.googleapis.com%2Fcss%3Ffamily%3DArchitects%2BDaughter;fillColor=#b0e3e6;strokeColor=#0e8088;strokeWidth=2;fontColor=#006633;" parent="1" vertex="1">
                    <mxGeometry x="960" y="360" width="80" height="40" as="geometry"/>
                </mxCell>
                <mxCell id="18" value="&lt;font style=&quot;font-size: 14px;&quot;&gt;password&lt;/font&gt;" style="ellipse;whiteSpace=wrap;html=1;fontSize=14;fontFamily=Architects Daughter;fontSource=https%3A%2F%2Ffonts.googleapis.com%2Fcss%3Ffamily%3DArchitects%2BDaughter;fillColor=#b0e3e6;strokeColor=#0e8088;strokeWidth=2;fontColor=#006633;" parent="1" vertex="1">
                    <mxGeometry x="330" y="380" width="80" height="40" as="geometry"/>
                </mxCell>
                <mxCell id="19" value="&lt;font style=&quot;font-size: 14px;&quot;&gt;name&lt;/font&gt;" style="ellipse;whiteSpace=wrap;html=1;fontSize=14;fontFamily=Architects Daughter;fontSource=https%3A%2F%2Ffonts.googleapis.com%2Fcss%3Ffamily%3DArchitects%2BDaughter;fillColor=#b0e3e6;strokeColor=#0e8088;strokeWidth=2;fontColor=#006633;fontStyle=0" parent="1" vertex="1">
                    <mxGeometry x="390" y="440" width="80" height="40" as="geometry"/>
                </mxCell>
                <mxCell id="43" style="edgeStyle=none;html=1;exitX=0;exitY=1;exitDx=0;exitDy=0;entryX=1;entryY=0;entryDx=0;entryDy=0;fontFamily=Architects Daughter;fontSource=https%3A%2F%2Ffonts.googleapis.com%2Fcss%3Ffamily%3DArchitects%2BDaughter;fontSize=12;fontColor=#994C00;endArrow=none;endFill=0;strokeColor=#0066CC;strokeWidth=6;" parent="1" source="20" target="9" edge="1">
                    <mxGeometry relative="1" as="geometry"/>
                </mxCell>
                <mxCell id="20" value="&lt;font style=&quot;font-size: 14px;&quot;&gt;MRN&lt;/font&gt;" style="ellipse;whiteSpace=wrap;html=1;fontSize=14;fontFamily=Architects Daughter;fontSource=https%3A%2F%2Ffonts.googleapis.com%2Fcss%3Ffamily%3DArchitects%2BDaughter;fillColor=#b0e3e6;strokeColor=#0e8088;strokeWidth=2;fontColor=#006633;fontStyle=5" parent="1" vertex="1">
                    <mxGeometry x="650" y="420" width="80" height="40" as="geometry"/>
                </mxCell>
                <mxCell id="21" value="&lt;font style=&quot;font-size: 14px;&quot;&gt;surname&lt;/font&gt;" style="ellipse;whiteSpace=wrap;html=1;fontSize=14;fontFamily=Architects Daughter;fontSource=https%3A%2F%2Ffonts.googleapis.com%2Fcss%3Ffamily%3DArchitects%2BDaughter;fillColor=#b0e3e6;strokeColor=#0e8088;strokeWidth=2;fontColor=#006633;" parent="1" vertex="1">
                    <mxGeometry x="460" y="390" width="80" height="40" as="geometry"/>
                </mxCell>
                <mxCell id="25" value="&lt;font style=&quot;font-size: 14px;&quot;&gt;id&lt;/font&gt;" style="ellipse;whiteSpace=wrap;html=1;fontSize=14;fontFamily=Architects Daughter;fontSource=https%3A%2F%2Ffonts.googleapis.com%2Fcss%3Ffamily%3DArchitects%2BDaughter;fillColor=#b0e3e6;strokeColor=#0e8088;strokeWidth=2;fontColor=#006633;fontStyle=5" parent="1" vertex="1">
                    <mxGeometry x="970" y="530" width="80" height="40" as="geometry"/>
                </mxCell>
                <mxCell id="91" value="" style="edgeStyle=none;html=1;fontFamily=Architects Daughter;fontSource=https%3A%2F%2Ffonts.googleapis.com%2Fcss%3Ffamily%3DArchitects%2BDaughter;fontSize=12;fontColor=#994C00;endArrow=none;endFill=0;strokeColor=#0066CC;strokeWidth=6;" parent="1" source="27" target="82" edge="1">
                    <mxGeometry relative="1" as="geometry"/>
                </mxCell>
                <mxCell id="92" style="edgeStyle=none;html=1;exitX=0;exitY=0;exitDx=0;exitDy=0;entryX=1;entryY=1;entryDx=0;entryDy=0;fontFamily=Architects Daughter;fontSource=https%3A%2F%2Ffonts.googleapis.com%2Fcss%3Ffamily%3DArchitects%2BDaughter;fontSize=12;fontColor=#994C00;endArrow=none;endFill=0;strokeColor=#0066CC;strokeWidth=6;" parent="1" source="27" target="84" edge="1">
                    <mxGeometry relative="1" as="geometry"/>
                </mxCell>
                <mxCell id="94" style="edgeStyle=none;html=1;exitX=0;exitY=1;exitDx=0;exitDy=0;entryX=1;entryY=0;entryDx=0;entryDy=0;fontFamily=Architects Daughter;fontSource=https%3A%2F%2Ffonts.googleapis.com%2Fcss%3Ffamily%3DArchitects%2BDaughter;fontSize=14;fontColor=#994C00;endArrow=none;endFill=0;strokeColor=#0066CC;strokeWidth=6;" parent="1" source="27" target="85" edge="1">
                    <mxGeometry relative="1" as="geometry"/>
                </mxCell>
                <mxCell id="27" value="Surgery" style="rounded=0;whiteSpace=wrap;html=1;strokeWidth=2;fontFamily=Architects Daughter;fontSource=https%3A%2F%2Ffonts.googleapis.com%2Fcss%3Ffamily%3DArchitects%2BDaughter;fontSize=18;fillColor=#d0cee2;strokeColor=#56517e;fontColor=#6C538A;" parent="1" vertex="1">
                    <mxGeometry x="200" y="780" width="80" height="40" as="geometry"/>
                </mxCell>
                <mxCell id="53" value="taking" style="rhombus;whiteSpace=wrap;html=1;strokeWidth=2;fontFamily=Architects Daughter;fontSource=https%3A%2F%2Ffonts.googleapis.com%2Fcss%3Ffamily%3DArchitects%2BDaughter;fontSize=12;fillColor=#fad7ac;strokeColor=#b46504;fontColor=#994C00;" parent="1" vertex="1">
                    <mxGeometry x="660" y="600" width="80" height="40" as="geometry"/>
                </mxCell>
                <mxCell id="56" value="&lt;font style=&quot;font-size: 14px;&quot;&gt;id&lt;/font&gt;" style="ellipse;whiteSpace=wrap;html=1;fontSize=14;fontFamily=Architects Daughter;fontSource=https%3A%2F%2Ffonts.googleapis.com%2Fcss%3Ffamily%3DArchitects%2BDaughter;fillColor=#b0e3e6;strokeColor=#0e8088;strokeWidth=2;fontColor=#006633;fontStyle=5" parent="1" vertex="1">
                    <mxGeometry x="400" y="840" width="80" height="40" as="geometry"/>
                </mxCell>
                <mxCell id="59" value="caused by" style="rhombus;whiteSpace=wrap;html=1;strokeWidth=2;fontFamily=Architects Daughter;fontSource=https%3A%2F%2Ffonts.googleapis.com%2Fcss%3Ffamily%3DArchitects%2BDaughter;fontSize=12;fillColor=#fad7ac;strokeColor=#b46504;fontColor=#994C00;" parent="1" vertex="1">
                    <mxGeometry x="860" y="620" width="80" height="40" as="geometry"/>
                </mxCell>
                <mxCell id="65" value="symptoms" style="ellipse;whiteSpace=wrap;html=1;fontSize=14;fontFamily=Architects Daughter;fontSource=https%3A%2F%2Ffonts.googleapis.com%2Fcss%3Ffamily%3DArchitects%2BDaughter;fillColor=#b0e3e6;strokeColor=#0e8088;strokeWidth=2;fontColor=#006633;" parent="1" vertex="1">
                    <mxGeometry x="580" y="900" width="80" height="40" as="geometry"/>
                </mxCell>
                <mxCell id="67" value="&lt;font style=&quot;&quot;&gt;&lt;font style=&quot;font-size: 14px;&quot;&gt;route&lt;/font&gt;&lt;br style=&quot;font-size: 11px;&quot;&gt;&lt;/font&gt;" style="ellipse;whiteSpace=wrap;html=1;fontSize=11;fontFamily=Architects Daughter;fontSource=https%3A%2F%2Ffonts.googleapis.com%2Fcss%3Ffamily%3DArchitects%2BDaughter;fillColor=#b0e3e6;strokeColor=#0e8088;strokeWidth=2;fontColor=#006633;" parent="1" vertex="1">
                    <mxGeometry x="870" y="920" width="80" height="40" as="geometry"/>
                </mxCell>
                <mxCell id="74" value="&lt;font style=&quot;font-size: 14px;&quot;&gt;id&lt;/font&gt;" style="ellipse;whiteSpace=wrap;html=1;fontSize=14;fontFamily=Architects Daughter;fontSource=https%3A%2F%2Ffonts.googleapis.com%2Fcss%3Ffamily%3DArchitects%2BDaughter;fillColor=#b0e3e6;strokeColor=#0e8088;strokeWidth=2;fontColor=#006633;fontStyle=5" parent="1" vertex="1">
                    <mxGeometry x="950" y="700" width="80" height="40" as="geometry"/>
                </mxCell>
                <mxCell id="75" value="&lt;font style=&quot;font-size: 14px;&quot;&gt;dosage&lt;/font&gt;" style="ellipse;whiteSpace=wrap;html=1;fontSize=14;fontFamily=Architects Daughter;fontSource=https%3A%2F%2Ffonts.googleapis.com%2Fcss%3Ffamily%3DArchitects%2BDaughter;fillColor=#b0e3e6;strokeColor=#0e8088;strokeWidth=2;fontColor=#006633;" parent="1" vertex="1">
                    <mxGeometry x="1000" y="870" width="80" height="40" as="geometry"/>
                </mxCell>
                <mxCell id="76" value="&lt;font style=&quot;font-size: 14px;&quot;&gt;frequency&lt;/font&gt;" style="ellipse;whiteSpace=wrap;html=1;fontSize=14;fontFamily=Architects Daughter;fontSource=https%3A%2F%2Ffonts.googleapis.com%2Fcss%3Ffamily%3DArchitects%2BDaughter;fillColor=#b0e3e6;strokeColor=#0e8088;strokeWidth=2;fontColor=#006633;" parent="1" vertex="1">
                    <mxGeometry x="770" y="870" width="80" height="40" as="geometry"/>
                </mxCell>
                <mxCell id="82" value="&lt;font style=&quot;font-size: 14px;&quot;&gt;id&lt;/font&gt;" style="ellipse;whiteSpace=wrap;html=1;fontSize=14;fontFamily=Architects Daughter;fontSource=https%3A%2F%2Ffonts.googleapis.com%2Fcss%3Ffamily%3DArchitects%2BDaughter;fillColor=#b0e3e6;strokeColor=#0e8088;strokeWidth=2;fontColor=#006633;fontStyle=5" parent="1" vertex="1">
                    <mxGeometry x="40" y="780" width="80" height="40" as="geometry"/>
                </mxCell>
                <mxCell id="84" value="&lt;font style=&quot;font-size: 14px;&quot;&gt;procedure&lt;br style=&quot;font-size: 14px;&quot;&gt;&lt;/font&gt;" style="ellipse;whiteSpace=wrap;html=1;fontSize=14;fontFamily=Architects Daughter;fontSource=https%3A%2F%2Ffonts.googleapis.com%2Fcss%3Ffamily%3DArchitects%2BDaughter;fillColor=#b0e3e6;strokeColor=#0e8088;strokeWidth=2;fontColor=#006633;" parent="1" vertex="1">
                    <mxGeometry x="80" y="700" width="80" height="40" as="geometry"/>
                </mxCell>
                <mxCell id="85" value="&lt;font style=&quot;&quot;&gt;&lt;font style=&quot;font-size: 12px;&quot;&gt;DOS&lt;/font&gt;&lt;br&gt;&lt;font style=&quot;font-size: 8px;&quot;&gt;(date of surgery)&lt;/font&gt;&lt;br&gt;&lt;/font&gt;" style="ellipse;whiteSpace=wrap;html=1;fontSize=14;fontFamily=Architects Daughter;fontSource=https%3A%2F%2Ffonts.googleapis.com%2Fcss%3Ffamily%3DArchitects%2BDaughter;fillColor=#b0e3e6;strokeColor=#0e8088;strokeWidth=2;fontColor=#006633;" parent="1" vertex="1">
                    <mxGeometry x="80" y="860" width="80" height="40" as="geometry"/>
                </mxCell>
                <mxCell id="104" value="" style="edgeStyle=none;html=1;fontSize=16;strokeColor=#0066CC;strokeWidth=6;" parent="1" source="102" target="103" edge="1">
                    <mxGeometry relative="1" as="geometry"/>
                </mxCell>
                <mxCell id="115" value="" style="edgeStyle=none;html=1;strokeColor=#0066CC;strokeWidth=2;fontSize=12;endArrow=none;endFill=0;" parent="1" source="102" target="109" edge="1">
                    <mxGeometry relative="1" as="geometry"/>
                </mxCell>
                <mxCell id="116" value="" style="edgeStyle=none;html=1;strokeColor=#0066CC;strokeWidth=2;fontSize=12;endArrow=none;endFill=0;" parent="1" source="102" target="106" edge="1">
                    <mxGeometry relative="1" as="geometry"/>
                </mxCell>
                <mxCell id="117" style="edgeStyle=none;html=1;exitX=1;exitY=1;exitDx=0;exitDy=0;entryX=0;entryY=0;entryDx=0;entryDy=0;strokeColor=#0066CC;strokeWidth=6;fontSize=12;endArrow=none;endFill=0;" parent="1" source="102" edge="1">
                    <mxGeometry relative="1" as="geometry">
                        <mxPoint x="671.7157287525381" y="295.85786437626916" as="targetPoint"/>
                    </mxGeometry>
                </mxCell>
                <mxCell id="118" style="edgeStyle=none;html=1;exitX=0;exitY=1;exitDx=0;exitDy=0;entryX=1;entryY=0;entryDx=0;entryDy=0;strokeColor=#0066CC;strokeWidth=6;fontSize=12;endArrow=none;endFill=0;" parent="1" source="102" target="112" edge="1">
                    <mxGeometry relative="1" as="geometry"/>
                </mxCell>
                <mxCell id="119" style="edgeStyle=none;html=1;exitX=0;exitY=0;exitDx=0;exitDy=0;entryX=1;entryY=1;entryDx=0;entryDy=0;strokeColor=#0066CC;strokeWidth=2;fontSize=12;endArrow=none;endFill=0;" parent="1" source="102" target="107" edge="1">
                    <mxGeometry relative="1" as="geometry"/>
                </mxCell>
                <mxCell id="120" style="edgeStyle=none;html=1;exitX=1;exitY=0;exitDx=0;exitDy=0;entryX=0;entryY=1;entryDx=0;entryDy=0;strokeColor=#0066CC;strokeWidth=2;fontSize=12;endArrow=none;endFill=0;" parent="1" source="102" target="110" edge="1">
                    <mxGeometry relative="1" as="geometry"/>
                </mxCell>
                <mxCell id="102" value="Vital Signs" style="rounded=0;whiteSpace=wrap;html=1;strokeWidth=2;fontFamily=Architects Daughter;fontSource=https%3A%2F%2Ffonts.googleapis.com%2Fcss%3Ffamily%3DArchitects%2BDaughter;fontSize=16;fillColor=#d0cee2;strokeColor=#56517e;fontColor=#6C538A;" parent="1" vertex="1">
                    <mxGeometry x="560" y="200" width="80" height="40" as="geometry"/>
                </mxCell>
                <mxCell id="103" value="has" style="rhombus;whiteSpace=wrap;html=1;strokeWidth=2;fontFamily=Architects Daughter;fontSource=https%3A%2F%2Ffonts.googleapis.com%2Fcss%3Ffamily%3DArchitects%2BDaughter;fontSize=11;fillColor=#fad7ac;strokeColor=#b46504;fontColor=#994C00;" parent="1" vertex="1">
                    <mxGeometry x="560" y="340" width="80" height="40" as="geometry"/>
                </mxCell>
                <mxCell id="106" value="&lt;font style=&quot;font-size: 14px;&quot;&gt;HR&lt;/font&gt;" style="ellipse;whiteSpace=wrap;html=1;fontSize=14;fontFamily=Architects Daughter;fontSource=https%3A%2F%2Ffonts.googleapis.com%2Fcss%3Ffamily%3DArchitects%2BDaughter;fillColor=#b0e3e6;strokeColor=#0e8088;strokeWidth=2;fontColor=#006633;" parent="1" vertex="1">
                    <mxGeometry x="400" y="230" width="80" height="40" as="geometry"/>
                </mxCell>
                <mxCell id="107" value="&lt;font style=&quot;font-size: 12px;&quot;&gt;diastolic BP&lt;br style=&quot;font-size: 12px;&quot;&gt;&lt;/font&gt;" style="ellipse;whiteSpace=wrap;html=1;fontSize=12;fontFamily=Architects Daughter;fontSource=https%3A%2F%2Ffonts.googleapis.com%2Fcss%3Ffamily%3DArchitects%2BDaughter;fillColor=#b0e3e6;strokeColor=#0e8088;strokeWidth=2;fontColor=#006633;" parent="1" vertex="1">
                    <mxGeometry x="460" y="100" width="80" height="40" as="geometry"/>
                </mxCell>
                <mxCell id="108" value="&lt;font style=&quot;font-size: 12px;&quot;&gt;temp&lt;/font&gt;" style="ellipse;whiteSpace=wrap;html=1;fontSize=12;fontFamily=Architects Daughter;fontSource=https%3A%2F%2Ffonts.googleapis.com%2Fcss%3Ffamily%3DArchitects%2BDaughter;fillColor=#b0e3e6;strokeColor=#0e8088;strokeWidth=2;fontColor=#006633;" parent="1" vertex="1">
                    <mxGeometry x="560" y="80" width="80" height="40" as="geometry"/>
                </mxCell>
                <mxCell id="109" value="&lt;font style=&quot;font-size: 12px;&quot;&gt;RR&lt;br style=&quot;font-size: 12px;&quot;&gt;&lt;/font&gt;" style="ellipse;whiteSpace=wrap;html=1;fontSize=12;fontFamily=Architects Daughter;fontSource=https%3A%2F%2Ffonts.googleapis.com%2Fcss%3Ffamily%3DArchitects%2BDaughter;fillColor=#b0e3e6;strokeColor=#0e8088;strokeWidth=2;fontColor=#006633;" parent="1" vertex="1">
                    <mxGeometry x="720" y="150" width="80" height="40" as="geometry"/>
                </mxCell>
                <mxCell id="110" value="&lt;font style=&quot;font-size: 14px;&quot;&gt;Sp02&lt;/font&gt;" style="ellipse;whiteSpace=wrap;html=1;fontSize=14;fontFamily=Architects Daughter;fontSource=https%3A%2F%2Ffonts.googleapis.com%2Fcss%3Ffamily%3DArchitects%2BDaughter;fillColor=#b0e3e6;strokeColor=#0e8088;strokeWidth=2;fontColor=#006633;" parent="1" vertex="1">
                    <mxGeometry x="660" y="90" width="80" height="40" as="geometry"/>
                </mxCell>
                <mxCell id="112" value="&lt;font style=&quot;font-size: 14px;&quot;&gt;id&lt;/font&gt;" style="ellipse;whiteSpace=wrap;html=1;fontSize=14;fontFamily=Architects Daughter;fontSource=https%3A%2F%2Ffonts.googleapis.com%2Fcss%3Ffamily%3DArchitects%2BDaughter;fillColor=#b0e3e6;strokeColor=#0e8088;strokeWidth=2;fontColor=#006633;fontStyle=5" parent="1" vertex="1">
                    <mxGeometry x="460" y="290" width="80" height="40" as="geometry"/>
                </mxCell>
                <mxCell id="114" style="edgeStyle=none;html=1;exitX=0.5;exitY=0;exitDx=0;exitDy=0;fontSize=16;endArrow=none;endFill=0;strokeWidth=2;strokeColor=#0066CC;entryX=0.5;entryY=1;entryDx=0;entryDy=0;" parent="1" source="102" edge="1" target="108">
                    <mxGeometry relative="1" as="geometry">
                        <mxPoint x="600" y="240" as="sourcePoint"/>
                        <mxPoint x="600" y="120" as="targetPoint"/>
                    </mxGeometry>
                </mxCell>
                <mxCell id="126" value="has" style="rhombus;whiteSpace=wrap;html=1;strokeWidth=2;fontFamily=Architects Daughter;fontSource=https%3A%2F%2Ffonts.googleapis.com%2Fcss%3Ffamily%3DArchitects%2BDaughter;fontSize=14;fillColor=#fad7ac;strokeColor=#b46504;fontColor=#994C00;" parent="1" vertex="1">
                    <mxGeometry x="350" y="640" width="80" height="40" as="geometry"/>
                </mxCell>
                <mxCell id="127" style="edgeStyle=none;html=1;exitX=0;exitY=1;exitDx=0;exitDy=0;fontFamily=Architects Daughter;fontSource=https%3A%2F%2Ffonts.googleapis.com%2Fcss%3Ffamily%3DArchitects%2BDaughter;fontSize=12;fontColor=#994C00;endArrow=none;endFill=0;strokeColor=#0066CC;strokeWidth=2;entryX=1;entryY=0;entryDx=0;entryDy=0;" parent="1" source="9" target="126" edge="1">
                    <mxGeometry relative="1" as="geometry">
                        <mxPoint x="480" y="570" as="sourcePoint"/>
                        <mxPoint x="512.8023604387279" y="660.3264518658561" as="targetPoint"/>
                    </mxGeometry>
                </mxCell>
                <mxCell id="128" style="edgeStyle=none;html=1;exitX=0;exitY=1;exitDx=0;exitDy=0;fontFamily=Architects Daughter;fontSource=https%3A%2F%2Ffonts.googleapis.com%2Fcss%3Ffamily%3DArchitects%2BDaughter;fontSize=12;fontColor=#994C00;endArrow=none;endFill=0;strokeColor=#0066CC;strokeWidth=6;entryX=1;entryY=0;entryDx=0;entryDy=0;startArrow=classic;startFill=1;" parent="1" source="126" target="27" edge="1">
                    <mxGeometry relative="1" as="geometry">
                        <mxPoint x="390" y="720" as="sourcePoint"/>
                        <mxPoint x="280" y="830" as="targetPoint"/>
                    </mxGeometry>
                </mxCell>
                <mxCell id="129" value="&lt;font style=&quot;font-size: 14px;&quot;&gt;medication&lt;/font&gt;" style="ellipse;whiteSpace=wrap;html=1;fontSize=14;fontFamily=Architects Daughter;fontSource=https%3A%2F%2Ffonts.googleapis.com%2Fcss%3Ffamily%3DArchitects%2BDaughter;fillColor=#b0e3e6;strokeColor=#0e8088;strokeWidth=2;fontColor=#006633;" parent="1" vertex="1">
                    <mxGeometry x="1040" y="750" width="80" height="40" as="geometry"/>
                </mxCell>
                <mxCell id="130" value="&lt;font style=&quot;font-size: 14px;&quot;&gt;department&lt;/font&gt;" style="ellipse;whiteSpace=wrap;html=1;fontSize=14;fontFamily=Architects Daughter;fontSource=https%3A%2F%2Ffonts.googleapis.com%2Fcss%3Ffamily%3DArchitects%2BDaughter;fillColor=#b0e3e6;strokeColor=#0e8088;strokeWidth=2;fontColor=#006633;" vertex="1" parent="1">
                    <mxGeometry x="250" y="530" width="80" height="40" as="geometry"/>
                </mxCell>
                <mxCell id="131" style="edgeStyle=none;html=1;exitX=0.75;exitY=1;exitDx=0;exitDy=0;fontFamily=Architects Daughter;fontSource=https%3A%2F%2Ffonts.googleapis.com%2Fcss%3Ffamily%3DArchitects%2BDaughter;fontSize=12;fontColor=#994C00;endArrow=none;endFill=0;strokeColor=#0066CC;strokeWidth=6;" edge="1" parent="1" source="5" target="130">
                    <mxGeometry relative="1" as="geometry">
                        <mxPoint x="220" y="490" as="sourcePoint"/>
                        <mxPoint x="178.2842712474619" y="545.8578643762692" as="targetPoint"/>
                    </mxGeometry>
                </mxCell>
                <mxCell id="138" value="&lt;font style=&quot;font-size: 14px;&quot;&gt;DOB&lt;/font&gt;" style="ellipse;whiteSpace=wrap;html=1;fontSize=14;fontFamily=Architects Daughter;fontSource=https%3A%2F%2Ffonts.googleapis.com%2Fcss%3Ffamily%3DArchitects%2BDaughter;fillColor=#b0e3e6;strokeColor=#0e8088;strokeWidth=2;fontColor=#006633;" vertex="1" parent="1">
                    <mxGeometry x="660" y="500" width="80" height="40" as="geometry"/>
                </mxCell>
                <mxCell id="139" style="edgeStyle=none;html=1;exitX=0;exitY=0.5;exitDx=0;exitDy=0;fontFamily=Architects Daughter;fontSource=https%3A%2F%2Ffonts.googleapis.com%2Fcss%3Ffamily%3DArchitects%2BDaughter;fontSize=12;fontColor=#994C00;endArrow=none;endFill=0;strokeColor=#0066CC;strokeWidth=6;" edge="1" parent="1" source="138">
                    <mxGeometry relative="1" as="geometry">
                        <mxPoint x="671.7157287525381" y="464.14213562373084" as="sourcePoint"/>
                        <mxPoint x="600" y="520" as="targetPoint"/>
                    </mxGeometry>
                </mxCell>
                <mxCell id="140" value="&lt;font style=&quot;font-size: 14px;&quot;&gt;name&lt;/font&gt;" style="ellipse;whiteSpace=wrap;html=1;fontSize=14;fontFamily=Architects Daughter;fontSource=https%3A%2F%2Ffonts.googleapis.com%2Fcss%3Ffamily%3DArchitects%2BDaughter;fillColor=#b0e3e6;strokeColor=#0e8088;strokeWidth=2;fontColor=#006633;" vertex="1" parent="1">
                    <mxGeometry x="160" y="320" width="80" height="40" as="geometry"/>
                </mxCell>
                <mxCell id="142" value="&lt;font style=&quot;font-size: 14px;&quot;&gt;surname&lt;/font&gt;" style="ellipse;whiteSpace=wrap;html=1;fontSize=14;fontFamily=Architects Daughter;fontSource=https%3A%2F%2Ffonts.googleapis.com%2Fcss%3Ffamily%3DArchitects%2BDaughter;fillColor=#b0e3e6;strokeColor=#0e8088;strokeWidth=2;fontColor=#006633;" vertex="1" parent="1">
                    <mxGeometry x="270" y="320" width="80" height="40" as="geometry"/>
                </mxCell>
                <mxCell id="143" style="edgeStyle=none;html=1;exitX=0.25;exitY=0;exitDx=0;exitDy=0;entryX=0.5;entryY=1;entryDx=0;entryDy=0;fontFamily=Architects Daughter;fontSource=https%3A%2F%2Ffonts.googleapis.com%2Fcss%3Ffamily%3DArchitects%2BDaughter;fontSize=12;fontColor=#994C00;endArrow=none;endFill=0;strokeColor=#0066CC;strokeWidth=6;" edge="1" parent="1" source="5" target="140">
                    <mxGeometry relative="1" as="geometry">
                        <mxPoint x="220" y="450" as="sourcePoint"/>
                        <mxPoint x="138.2842712474619" y="404.14213562373084" as="targetPoint"/>
                    </mxGeometry>
                </mxCell>
                <mxCell id="144" style="edgeStyle=none;html=1;entryX=0.289;entryY=0.995;entryDx=0;entryDy=0;fontFamily=Architects Daughter;fontSource=https%3A%2F%2Ffonts.googleapis.com%2Fcss%3Ffamily%3DArchitects%2BDaughter;fontSize=12;fontColor=#994C00;endArrow=none;endFill=0;strokeColor=#0066CC;strokeWidth=6;entryPerimeter=0;" edge="1" parent="1" target="142">
                    <mxGeometry relative="1" as="geometry">
                        <mxPoint x="260" y="440" as="sourcePoint"/>
                        <mxPoint x="210" y="370" as="targetPoint"/>
                    </mxGeometry>
                </mxCell>
                <mxCell id="145" value="&lt;font style=&quot;font-size: 14px;&quot;&gt;active?&lt;/font&gt;" style="ellipse;whiteSpace=wrap;html=1;fontSize=14;fontFamily=Architects Daughter;fontSource=https%3A%2F%2Ffonts.googleapis.com%2Fcss%3Ffamily%3DArchitects%2BDaughter;fillColor=#b0e3e6;strokeColor=#0e8088;strokeWidth=2;fontColor=#006633;" vertex="1" parent="1">
                    <mxGeometry x="1050" y="810" width="80" height="40" as="geometry"/>
                </mxCell>
                <mxCell id="146" style="edgeStyle=none;html=1;exitX=1;exitY=0.5;exitDx=0;exitDy=0;entryX=0;entryY=0.5;entryDx=0;entryDy=0;fontFamily=Architects Daughter;fontSource=https%3A%2F%2Ffonts.googleapis.com%2Fcss%3Ffamily%3DArchitects%2BDaughter;fontSize=11;fontColor=#994C00;endArrow=none;endFill=0;strokeColor=#0066CC;strokeWidth=6;" edge="1" parent="1" source="11" target="145">
                    <mxGeometry relative="1" as="geometry">
                        <mxPoint x="980" y="850" as="sourcePoint"/>
                        <mxPoint x="1036" y="884.2" as="targetPoint"/>
                    </mxGeometry>
                </mxCell>
                <mxCell id="147" value="start date" style="ellipse;whiteSpace=wrap;html=1;fontSize=14;fontFamily=Architects Daughter;fontSource=https%3A%2F%2Ffonts.googleapis.com%2Fcss%3Ffamily%3DArchitects%2BDaughter;fillColor=#b0e3e6;strokeColor=#0e8088;strokeWidth=2;fontColor=#006633;" vertex="1" parent="1">
                    <mxGeometry x="650" y="840" width="80" height="40" as="geometry"/>
                </mxCell>
                <mxCell id="148" style="edgeStyle=none;html=1;exitX=1;exitY=1;exitDx=0;exitDy=0;fontFamily=Architects Daughter;fontSource=https%3A%2F%2Ffonts.googleapis.com%2Fcss%3Ffamily%3DArchitects%2BDaughter;fontSize=12;fontColor=#994C00;endArrow=none;endFill=0;strokeColor=#0066CC;strokeWidth=2;entryX=0;entryY=0;entryDx=0;entryDy=0;" edge="1" parent="1" source="10" target="147">
                    <mxGeometry relative="1" as="geometry">
                        <mxPoint x="590" y="820" as="sourcePoint"/>
                        <mxPoint x="622.8023604387274" y="910.326451865855" as="targetPoint"/>
                    </mxGeometry>
                </mxCell>
                <mxCell id="152" value="time taken" style="ellipse;whiteSpace=wrap;html=1;fontSize=12;fontFamily=Architects Daughter;fontSource=https%3A%2F%2Ffonts.googleapis.com%2Fcss%3Ffamily%3DArchitects%2BDaughter;fillColor=#b0e3e6;strokeColor=#0e8088;strokeWidth=2;fontColor=#006633;" vertex="1" parent="1">
                    <mxGeometry x="650" y="290" width="80" height="40" as="geometry"/>
                </mxCell>
                <mxCell id="153" value="&lt;font style=&quot;font-size: 12px;&quot;&gt;systolic BP&lt;br style=&quot;font-size: 12px;&quot;&gt;&lt;/font&gt;" style="ellipse;whiteSpace=wrap;html=1;fontSize=12;fontFamily=Architects Daughter;fontSource=https%3A%2F%2Ffonts.googleapis.com%2Fcss%3Ffamily%3DArchitects%2BDaughter;fillColor=#b0e3e6;strokeColor=#0e8088;strokeWidth=2;fontColor=#006633;" vertex="1" parent="1">
                    <mxGeometry x="400" y="150" width="80" height="40" as="geometry"/>
                </mxCell>
                <mxCell id="154" style="edgeStyle=none;html=1;exitX=0;exitY=0.25;exitDx=0;exitDy=0;entryX=1;entryY=1;entryDx=0;entryDy=0;strokeColor=#0066CC;strokeWidth=2;fontSize=12;endArrow=none;endFill=0;" edge="1" parent="1" source="102" target="153">
                    <mxGeometry relative="1" as="geometry">
                        <mxPoint x="570" y="210" as="sourcePoint"/>
                        <mxPoint x="538.2842712474619" y="144.14213562373095" as="targetPoint"/>
                    </mxGeometry>
                </mxCell>
                <mxCell id="156" value="" style="edgeStyle=none;html=1;fontFamily=Architects Daughter;fontSource=https%3A%2F%2Ffonts.googleapis.com%2Fcss%3Ffamily%3DArchitects%2BDaughter;fontSize=12;fontColor=#994C00;endArrow=none;endFill=0;strokeColor=#0066CC;strokeWidth=6;" edge="1" parent="1" source="10" target="155">
                    <mxGeometry relative="1" as="geometry">
                        <mxPoint x="550.77761872102" y="810" as="sourcePoint"/>
                        <mxPoint x="509.03838163630894" y="900.5172662506236" as="targetPoint"/>
                    </mxGeometry>
                </mxCell>
                <mxCell id="155" value="diagnosis" style="ellipse;whiteSpace=wrap;html=1;fontSize=14;fontFamily=Architects Daughter;fontSource=https%3A%2F%2Ffonts.googleapis.com%2Fcss%3Ffamily%3DArchitects%2BDaughter;fillColor=#b0e3e6;strokeColor=#0e8088;strokeWidth=2;fontColor=#006633;" vertex="1" parent="1">
                    <mxGeometry x="460" y="900" width="80" height="40" as="geometry"/>
                </mxCell>
            </root>
        </mxGraphModel>
    </diagram>
</mxfile>